inDegrees=no
num_controls=7
num_derivatives=13
num_iterations=142
num_multipliers=7
num_parameters=0
num_slacks=7
num_states=26
objective=5.761553
objective_accelerations=0.685687
objective_balance=0.015462
objective_effort=0.488854
objective_height=4.524313
objective_ligament=0.047236
solver_duration=1248.826283
status=Solve_Succeeded
success=true
DataType=double
version=3
OpenSimVersion=4.4-2022-07-23-0e9fedc
endheader
time	/jointset/ground_pelvis/pelvis_tilt/value	/jointset/ground_pelvis/pelvis_tx/value	/jointset/ground_pelvis/pelvis_ty/value	/jointset/hip_r/hip_flexion_r/value	/jointset/hip_r/hip_adduction_r/value	/jointset/hip_r/hip_rotation_r/value	/jointset/back/lumbar_extension/value	/jointset/patellofemoral_r/patellar_flexion_r/value	/jointset/knee_r/knee_flexion_r/value	/jointset/knee_r/knee_adduction_r/value	/jointset/knee_r/knee_rotation_r/value	/jointset/ankle_r/ankle_angle_r/value	/jointset/subtalar_r/subtalar_angle_r/value	/jointset/ground_pelvis/pelvis_tilt/speed	/jointset/ground_pelvis/pelvis_tx/speed	/jointset/ground_pelvis/pelvis_ty/speed	/jointset/hip_r/hip_flexion_r/speed	/jointset/hip_r/hip_adduction_r/speed	/jointset/hip_r/hip_rotation_r/speed	/jointset/back/lumbar_extension/speed	/jointset/patellofemoral_r/patellar_flexion_r/speed	/jointset/knee_r/knee_flexion_r/speed	/jointset/knee_r/knee_adduction_r/speed	/jointset/knee_r/knee_rotation_r/speed	/jointset/ankle_r/ankle_angle_r/speed	/jointset/subtalar_r/subtalar_angle_r/speed	/forceset/tau_hip_flexion_r	/forceset/tau_hip_adduction_r	/forceset/tau_hip_rotation_r	/forceset/tau_knee_flexion_r	/forceset/tau_ankle_angle_r	/forceset/tau_subtalar_angle_r	/forceset/tau_lumbar_extension	lambda_cid13_p0	lambda_cid14_p0	lambda_cid14_p1	lambda_cid14_p2	lambda_cid14_p3	lambda_cid14_p4	lambda_cid14_p5	/jointset/ground_pelvis/pelvis_tilt/accel	/jointset/ground_pelvis/pelvis_tx/accel	/jointset/ground_pelvis/pelvis_ty/accel	/jointset/hip_r/hip_flexion_r/accel	/jointset/hip_r/hip_adduction_r/accel	/jointset/hip_r/hip_rotation_r/accel	/jointset/back/lumbar_extension/accel	/jointset/patellofemoral_r/patellar_flexion_r/accel	/jointset/knee_r/knee_flexion_r/accel	/jointset/knee_r/knee_adduction_r/accel	/jointset/knee_r/knee_rotation_r/accel	/jointset/ankle_r/ankle_angle_r/accel	/jointset/subtalar_r/subtalar_angle_r/accel	gamma_cid13_p0	gamma_cid14_p0	gamma_cid14_p1	gamma_cid14_p2	gamma_cid14_p3	gamma_cid14_p4	gamma_cid14_p5
1	-0.2576169387256582	-0.02085681785602652	0.6036342358441641	1.530714207860591	-0.2410184386761595	-0.06717067786728721	-0.7853977773953107	1.588997976871038	1.588997976871043	-0.1745329077612777	0.1745319409375133	0.4362387761097185	0.1701678624044958	0.07013635525815039	0.00478026090284373	0.01588483825392513	-0.1015155074302664	-0.001105603516168894	-0.002627566278521688	1.5397851280073e-05	-0.01738841459514185	-0.01738841459514159	0.00333427533237038	-0.0002058489183377518	0.01402152878565887	0.005066992370806421	-0.3527009050004969	0.01776308517564289	0.006969873975602143	-0.4777198524301532	-0.0154132402964967	0.008917962219307216	0.3698939358726097	-0.04013164776560118	-56.93643218058737	-9.15747736559347	5.378731366946405	9.03064283500837	-779.9063011875547	74.61186907349985	1.233949205918291	0.1123238356111371	2.007961572963027	-5.839804359025399	0.2455361887224094	-0.775225036388007	-0.01222116905042366	-5.382521549783009	-5.382521549782995	0.6129874554714452	-0.01942515741136487	-0.9329080821370221	0.01090389988888643	1.741095879616292e-09	2.536080636943922e-09	8.042644833953995e-09	1.11674088129977e-08	-2.558120127441873e-09	-5.144986293297372e-09	1.916090293123978e-08
1.01	-0.2568545048100805	-0.02080338650876248	0.6038933298082898	1.529407946496244	-0.2410171845517095	-0.06723265887788131	-0.785397672269087	1.588555410751498	1.588555410751503	-0.1744659317041324	0.1745285628606358	0.4363322919063743	0.170219035837258	0.08234762828829673	0.005910362557687538	0.03592997402851774	-0.1597279499466218	0.001353718292517205	-0.009720485291547811	-6.699907009473883e-06	-0.07111870265389507	-0.07111870265389385	0.01011323142045208	-0.0004671383837128786	0.004676775150871892	0.005158601686895809	-0.3518550440624672	0.01769503121300551	0.007073138327126158	-0.4781760439296924	-0.0146432169792858	0.008865870760361289	0.3693707093504632	-0.04013659363898479	-56.67301784870408	-9.147510405398041	5.392598961686605	8.83154885202849	-779.6184756685606	74.67320162345681	1.214298095084387	0.1140048627497442	2.002190066012945	-5.810640336647139	0.2457291567936463	-0.6690999484072681	0.0009468238907043359	-5.36736772945491	-5.36736772945479	0.7181927745395021	-0.02907455094500946	-0.9359870061622061	0.006936451668654694	6.424275050024826e-09	9.936079709203934e-09	3.659239912289538e-08	4.361024309416081e-08	-7.790361329931843e-09	-1.209120273405026e-08	8.538972422659844e-08
1.02	-0.2559700418154982	-0.0207385238384843	0.6043527552274223	1.527519825478993	-0.2409914174132045	-0.06736412400150112	-0.7853981579397534	1.587575724692262	1.587575724692258	-0.1743295974682826	0.1745226531471625	0.4363322145660955	0.1702708547640212	0.09454217105930607	0.0070665255056711	0.05595112925533577	-0.2178874380112394	0.003796999295257274	-0.01652438889046104	-0.0001027615409437029	-0.1248124025339873	-0.124812402533986	0.01720591107104705	-0.0007121762428682433	-0.004697098564423126	0.005196091170976145	-0.3510091831244381	0.01762697725044703	0.007176402678535156	-0.478632235429241	-0.01387319366205166	0.008813779301577963	0.3688474828283191	-0.04014947392299752	-56.41674550217428	-9.135724538250868	5.402670179859598	8.638504929241311	-779.4415219005391	74.76151159809804	1.230603154090935	0.1175360942390216	2.003165463408103	-5.8292134686778	0.2423280275332297	-0.7174219535654193	-0.02701394417962946	-5.375203914050843	-5.375203914050991	0.675732167974094	-0.01617483616743411	-0.9387320982387671	7.993348705408881e-05	1.335649470443118e-08	1.933201095015964e-08	7.525914825167224e-08	9.209166394686179e-08	-1.181334270500269e-08	-2.077485834738863e-08	1.800786565945686e-07
1.03	-0.2549640694874662	-0.02066187869283051	0.6050122164038545	1.525050724009322	-0.2409413521145898	-0.0675622495325459	-0.7853981282370791	1.586059254774272	1.586059254774274	-0.1741207528759823	0.1745145047703188	0.4362382150646413	0.1703226549589075	0.1066140724461176	0.008276071573857674	0.07593169440305612	-0.2758896560669932	0.006208938739085451	-0.02306184580268106	0.0002812649231132134	-0.1784790126350868	-0.1784790126350872	0.02461280805845506	-0.0009045589693364214	-0.01411084460535108	0.005144902748596619	-0.3516156593110301	0.01776630274413131	0.007291833209831197	-0.4781866524837898	-0.01449025078681443	0.00883471123431467	0.369735113398488	-0.04016766366753466	-56.63798697359503	-9.15284460075304	5.391090955204687	8.646063036001204	-779.882807766377	74.73502156533914	1.189756183256032	0.1246958663339312	1.994084348267217	-5.77924051108862	0.2395763863242309	-0.6160668749245692	0.09699537313970195	-5.362008398284629	-5.362008398284784	0.7806338325943659	-0.01878995914435801	-0.9439018332163768	-0.01054035346241653	2.031166375153141e-08	2.874830884589796e-08	1.14029132021672e-07	1.407367438462112e-07	-1.582398469407945e-08	-2.947624293187585e-08	2.750579982591982e-07
